<?xml version="1.0" standalone="no"?>
<!DOCTYPE svg PUBLIC "-//W3C//DTD SVG 20010904//EN"
 "http://www.w3.org/TR/2001/REC-SVG-20010904/DTD/svg10.dtd">
<svg version="1.0" xmlns="http://www.w3.org/2000/svg"
 width="2248.000000pt" height="2248.000000pt" viewBox="0 0 2248.000000 2248.000000"
 preserveAspectRatio="xMidYMid meet">
<metadata>
Created by potrace 1.14, written by Peter Selinger 2001-2017
</metadata>
<g transform="translate(0.000000,2248.000000) scale(0.100000,-0.100000)"
fill="#000000" stroke="none">
<path d="M11495 12644 c-2761 -2055 -5058 -3763 -5104 -3796 -76 -54 -87 -59
-105 -48 -31 19 -2198 1630 -2218 1649 -16 15 61 75 1138 876 636 473 1165
871 1175 884 26 32 34 68 23 100 -7 18 -236 203 -744 599 -404 316 -748 582
-765 593 -34 21 -76 24 -106 8 -12 -6 -876 -676 -1922 -1490 -1305 -1015
-1908 -1490 -1920 -1512 -22 -40 -14 -83 21 -118 15 -14 1226 -959 2692 -2100
1466 -1140 2698 -2099 2738 -2131 61 -48 80 -58 112 -58 35 0 419 283 5099
3764 2783 2071 5081 3779 5106 3796 25 17 50 30 54 28 5 -2 513 -378 1129
-837 l1121 -834 -77 -58 c-1413 -1048 -2250 -1676 -2264 -1697 -21 -31 -24
-91 -5 -114 25 -32 1509 -1178 1533 -1184 14 -4 38 -3 54 2 30 9 3763 2907
3833 2975 31 31 37 43 37 78 0 30 -6 48 -22 64 -27 26 -5456 4254 -5496 4279
-15 10 -43 18 -62 17 -31 0 -647 -455 -5055 -3735z"/>
<path d="M6747 13623 c-256 -197 -470 -368 -476 -381 -6 -13 -8 -30 -3 -37 4
-8 271 -220 592 -471 322 -251 586 -457 588 -459 1 -1 -319 -241 -712 -534
-393 -292 -718 -540 -721 -551 -3 -11 -2 -28 4 -38 5 -10 205 -169 442 -353
551 -425 505 -392 528 -384 11 3 534 417 1163 919 886 708 1144 918 1146 937
2 17 -7 34 -30 55 -28 27 -1912 1570 -1992 1632 -16 12 -37 22 -46 22 -10 0
-227 -161 -483 -357z"/>
<path d="M14899 11145 c-1004 -803 -1144 -918 -1147 -943 -3 -28 52 -75 1010
-859 557 -456 1022 -834 1033 -840 11 -6 27 -8 35 -5 19 7 922 699 938 720 34
44 35 43 -555 503 -313 243 -578 452 -591 463 l-22 22 710 528 c391 290 715
537 721 548 8 14 7 25 -5 43 -26 40 -934 735 -959 735 -16 0 -400 -301 -1168
-915z"/>
</g>
</svg>
